<svg xmlns="http://www.w3.org/2000/svg" viewBox="0 0 80 24" width="80" height="24">
  <path d="M1.24003 2L11.0597 24H11.5289L15.5506 16.3103L9.3505 2H1.24003ZM0 23.7241H5.06066C4.52443 20.6897 4.12226 18.6897 3.85415 16.4138H3.31792C2.51357 18.3793 1.57517 20.8621 0 23.7241ZM18.2653 2L19.0026 23.7241H26.5433L25.806 2H18.2653Z"></path>
  <path d="M33.336 24C35.9501 24 36.8885 22.3103 37.1566 21.5862V21.2759C36.922 21.4138 36.6539 21.6552 36.1512 21.6552C35.3469 21.6552 35.0117 20.8276 35.0117 18.5862C35.0117 16.8276 35.1793 16.2759 35.682 15.6207C35.9837 15.3103 36.5199 15.069 36.922 14.931V14.5862C35.4474 14.7586 32.6992 15.3448 31.8614 15.6207C30.2527 16.1724 28.6775 17.1724 28.6775 19.8276C28.6775 22.6207 30.6549 24 33.336 24ZM37.6929 12.8621V23.7241H44.2617V11.931C44.2617 8.44828 41.8151 7.13793 37.7264 7.13793C35.7155 7.13793 33.2355 7.75862 31.9619 8.68966V9.06897C32.4646 8.93104 33.1014 8.7931 33.8722 8.7931C36.2518 8.7931 37.6929 9.72414 37.6929 12.8621ZM31.8949 14C33.336 14 34.0733 13.0345 34.0733 11.7931C34.0733 10.5517 33.336 9.58621 31.8949 9.58621C30.4538 9.58621 29.683 10.5517 29.683 11.7931C29.683 13.0345 30.4538 14 31.8949 14Z"></path>
  <path d="M57.8193 23.7241H64.7232V23.4138C62.5783 19.5517 61.1037 17.069 58.7912 12.3793L53.9651 16.6897C55.2052 19.3448 56.3111 21.069 57.8193 23.7241ZM46.8601 0.62069V23.7241H53.4289V0L46.8601 0.62069ZM59.5955 11.4138L59.7966 11.7586C61.5058 9.89655 62.4778 8.96552 64.187 7.41379H58.6571C59.0928 8.96552 59.3274 9.72414 59.5955 11.4138Z"></path>
  <path d="M72.7274 24C77.654 24 79.4638 20.4483 80 18.5172V17.931C79.0616 18.6552 77.4864 19.1379 75.7437 19.1379C72.6939 19.1379 71.2528 17.069 71.2528 13.3448C71.2528 8.68966 71.6884 7.7931 72.6268 7.51724V7.13793C68.0689 7.51724 64.6169 10.9655 64.6169 15.5172C64.6169 19.7931 67.097 24 72.7274 24ZM72.0906 13.5517V14H79.8995C79.8995 10.9655 78.0897 7.41379 73.2636 7.13793V7.51724C73.9674 7.68965 74.3026 9.58621 74.3026 13.2069L72.0906 13.5517Z"></path>
</svg>